<svg width="35" height="35" viewBox="0 0 35 35" fill="none" xmlns="http://www.w3.org/2000/svg">
<path d="M21.6328 18L15.1661 24.1054C15.1129 24.1546 15.0708 24.213 15.0423 24.2772C15.0137 24.3415 14.9994 24.4103 15 24.4797C15.0006 24.549 15.0162 24.6176 15.0459 24.6814C15.0756 24.7452 15.1187 24.803 15.1728 24.8514C15.227 24.8997 15.291 24.9378 15.3612 24.9633C15.4315 24.9888 15.5065 25.0012 15.582 24.9999C15.6575 24.9986 15.732 24.9835 15.8011 24.9556C15.8702 24.9276 15.9326 24.8874 15.9847 24.8372L22.8382 18.3659C22.942 18.2679 23 18.1367 23 18C23 17.8633 22.942 17.7321 22.8382 17.6341L15.9847 11.1628C15.9326 11.1126 15.8702 11.0724 15.8011 11.0444C15.732 11.0165 15.6575 11.0014 15.582 11.0001C15.5065 10.9988 15.4315 11.0112 15.3612 11.0367C15.291 11.0622 15.227 11.1003 15.1728 11.1486C15.1187 11.197 15.0756 11.2548 15.0459 11.3186C15.0162 11.3824 15.0006 11.451 15 11.5203C14.9994 11.5897 15.0137 11.6585 15.0423 11.7228C15.0708 11.787 15.1129 11.8454 15.1661 11.8946L21.6328 18Z" fill="#12A1DC"/>
</svg>
