<svg width="8" height="8" viewBox="0 0 8 8" fill="none" xmlns="http://www.w3.org/2000/svg">
<path d="M7 1.66666L1 1.66666C0.939255 1.66685 0.87971 1.68361 0.827776 1.71512C0.775843 1.74664 0.733488 1.79172 0.70527 1.84551C0.677052 1.89931 0.66404 1.95978 0.667634 2.02042C0.671228 2.08106 0.691293 2.13958 0.725668 2.18966L3.72567 6.523C3.85 6.70266 4.14933 6.70266 4.274 6.523L7.274 2.18966C7.30873 2.13968 7.32909 2.08114 7.33288 2.0204C7.33667 1.95966 7.32374 1.89904 7.2955 1.84513C7.26725 1.79122 7.22478 1.74608 7.17268 1.71461C7.12058 1.68315 7.06086 1.66657 7 1.66666Z" fill="white"/>
</svg>
