<svg width="12" height="12" viewBox="0 0 12 12" fill="none" xmlns="http://www.w3.org/2000/svg">
<g id="bxs:up-arrow">
<path id="Vector" d="M10.5 2.49995L1.50002 2.49995C1.4089 2.50023 1.31958 2.52536 1.24168 2.57264C1.16378 2.61991 1.10025 2.68753 1.05792 2.76822C1.01559 2.84892 0.996076 2.93963 1.00147 3.03059C1.00686 3.12155 1.03695 3.20932 1.08852 3.28445L5.58852 9.78445C5.77502 10.0539 6.22402 10.0539 6.41102 9.78445L10.911 3.28445C10.9631 3.20948 10.9937 3.12166 10.9993 3.03055C11.005 2.93944 10.9856 2.84851 10.9433 2.76764C10.9009 2.68678 10.8372 2.61907 10.759 2.57188C10.6809 2.52468 10.5913 2.4998 10.5 2.49995Z" fill="white"/>
</g>
</svg>
