<svg width="29" height="30" viewBox="0 0 29 30" fill="none" xmlns="http://www.w3.org/2000/svg">
<g id="codicon:server-process">
<path id="Vector" fill-rule="evenodd" clip-rule="evenodd" d="M3.3125 3.75H27.6875L28.625 4.6875V16.875H26.75V11.25H4.25V24.375H17.375V26.25H3.3125L2.375 25.3125V4.6875L3.3125 3.75ZM4.25 9.375H26.75V5.625H4.25V9.375ZM13.625 22.5V20.4487C13.3064 20.3329 13.0092 20.165 12.7456 19.9519L10.9738 20.9625L10.0363 19.35L11.7931 18.3244C11.7331 17.9851 11.7331 17.638 11.7931 17.2987L10.0363 16.275L10.9738 14.6625L12.7456 15.675C13.0288 15.45 13.3231 15.2831 13.625 15.1762V13.125H15.5V15.1762C15.8211 15.2867 16.1191 15.4551 16.3794 15.6731L18.1512 14.6625L19.0887 16.275L17.3319 17.3006C17.3917 17.6393 17.3917 17.9857 17.3319 18.3244L19.0887 19.35L18.1512 20.9625L16.3794 19.95C16.1128 20.1593 15.8164 20.3274 15.5 20.4487V22.5H13.625ZM13.1562 17.8125C13.1562 18.2025 13.2931 18.5344 13.5669 18.8081C13.696 18.941 13.8509 19.0459 14.0222 19.1166C14.1934 19.1872 14.3773 19.222 14.5625 19.2188C14.7477 19.222 14.9316 19.1872 15.1028 19.1166C15.2741 19.0459 15.429 18.941 15.5581 18.8081C15.691 18.679 15.7959 18.5241 15.8666 18.3528C15.9372 18.1816 15.972 17.9977 15.9688 17.8125C15.972 17.6273 15.9372 17.4434 15.8666 17.2722C15.7959 17.1009 15.691 16.946 15.5581 16.8169C15.429 16.684 15.2741 16.5791 15.1028 16.5084C14.9316 16.4378 14.7477 16.403 14.5625 16.4062C14.3773 16.403 14.1934 16.4378 14.0222 16.5084C13.8509 16.5791 13.696 16.684 13.5669 16.8169C13.434 16.946 13.3291 17.1009 13.2584 17.2722C13.1878 17.4434 13.153 17.6273 13.1562 17.8125ZM23.1575 28.125V26.0737C22.8389 25.9579 22.5417 25.79 22.2781 25.5769L20.5063 26.5875L19.5688 24.975L21.3275 23.9494C21.2676 23.6101 21.2676 23.263 21.3275 22.9237L19.5688 21.9L20.5063 20.2875L22.2781 21.3C22.5612 21.075 22.8556 20.9081 23.1594 20.8013V18.75H25.0344V20.8013C25.3547 20.9121 25.652 21.0805 25.9119 21.2981L27.6838 20.2875L28.6213 21.9L26.8644 22.9256C26.9245 23.2642 26.9245 23.6108 26.8644 23.9494L28.6213 24.975L27.6838 26.5875L25.9119 25.575C25.6454 25.7843 25.3489 25.9524 25.0325 26.0737V28.125H23.1575ZM22.6887 23.4375C22.6887 23.8275 22.8256 24.1594 23.0994 24.4331C23.2285 24.566 23.3834 24.6709 23.5547 24.7416C23.7259 24.8122 23.9098 24.847 24.095 24.8438C24.2802 24.847 24.4641 24.8122 24.6353 24.7416C24.8066 24.6709 24.9615 24.566 25.0906 24.4331C25.2238 24.3042 25.3291 24.1493 25.4001 23.9781C25.471 23.8068 25.5061 23.6228 25.5031 23.4375C25.5061 23.2522 25.471 23.0682 25.4001 22.8969C25.3291 22.7257 25.2238 22.5708 25.0906 22.4419C24.9617 22.3093 24.8071 22.2044 24.6362 22.1338C24.4653 22.0632 24.2818 22.0283 24.0969 22.0312C23.9114 22.0278 23.7271 22.0624 23.5555 22.1331C23.3839 22.2037 23.2287 22.3088 23.0994 22.4419C22.9665 22.571 22.8616 22.7259 22.7909 22.8972C22.7203 23.0684 22.6855 23.2523 22.6887 23.4375Z" fill="white"/>
</g>
</svg>
