<svg width="10" height="10" viewBox="0 0 10 10" fill="none" xmlns="http://www.w3.org/2000/svg">
<g clip-path="url(#clip0_329_249)">
<path d="M5 0C2.23858 0 0 2.23858 0 5C0 7.76142 2.23858 10 5 10C7.76141 10 10 7.76142 10 5C10 2.23858 7.76141 0 5 0ZM5 1.08643C7.16141 1.08643 8.91297 2.83913 8.91297 5C8.91297 7.16088 7.16141 8.91297 5 8.91297C2.83858 8.91297 1.08703 7.16088 1.08703 5C1.08704 2.83913 2.83858 1.08643 5 1.08643ZM6.91589 2.62573L4.01794 5.52429L3.078 4.58435L2.15576 5.50598L3.0957 6.44593L4.02404 7.37427L4.94568 6.45203L7.84423 3.55408L6.91589 2.62573Z" fill="white"/>
</g>
<defs>
<clipPath id="clip0_329_249">
<rect width="10" height="10" fill="white"/>
</clipPath>
</defs>
</svg>
