<svg width="30" height="30" viewBox="0 0 30 30" fill="none" xmlns="http://www.w3.org/2000/svg">
<path d="M24.375 15.0713C24.375 14.7838 24.3625 14.5088 24.3375 14.2213L26.6625 12.4588C27.1625 12.0838 27.3 11.3838 26.9875 10.8338L24.65 6.79629C24.5001 6.53152 24.2577 6.33147 23.9693 6.23456C23.6809 6.13766 23.3669 6.15074 23.0875 6.27129L20.4 7.40879C19.9375 7.08379 19.45 6.79629 18.9375 6.55879L18.575 3.67129C18.5 3.04629 17.9625 2.57129 17.3375 2.57129H12.675C12.0375 2.57129 11.5 3.04629 11.425 3.67129L11.0625 6.55879C10.55 6.79629 10.0625 7.08379 9.60001 7.40879L6.91251 6.27129C6.33751 6.02129 5.66251 6.24629 5.35001 6.79629L3.01251 10.8463C2.70001 11.3963 2.83751 12.0838 3.33751 12.4713L5.66251 14.2338C5.61069 14.7951 5.61069 15.36 5.66251 15.9213L3.33751 17.6838C2.83751 18.0588 2.70001 18.7588 3.01251 19.3088L5.35001 23.3463C5.66251 23.8963 6.33751 24.1213 6.91251 23.8713L9.60001 22.7338C10.0625 23.0588 10.55 23.3463 11.0625 23.5838L11.425 26.4713C11.5 27.0963 12.0375 27.5713 12.6625 27.5713H17.325C17.95 27.5713 18.4875 27.0963 18.5625 26.4713L18.925 23.5838C19.4375 23.3463 19.925 23.0588 20.3875 22.7338L23.075 23.8713C23.65 24.1213 24.325 23.8963 24.6375 23.3463L26.975 19.3088C27.2875 18.7588 27.15 18.0713 26.65 17.6838L24.325 15.9213C24.3625 15.6338 24.375 15.3588 24.375 15.0713ZM15.05 19.4463C12.6375 19.4463 10.675 17.4838 10.675 15.0713C10.675 12.6588 12.6375 10.6963 15.05 10.6963C17.4625 10.6963 19.425 12.6588 19.425 15.0713C19.425 17.4838 17.4625 19.4463 15.05 19.4463Z" fill="white"/>
</svg>
