<svg width="30" height="30" viewBox="0 0 30 30" fill="none" xmlns="http://www.w3.org/2000/svg">
<g id="icon-park-outline:find">
<g id="Group">
<path id="Vector" d="M2.5 4.375H27.5M2.5 14.375H9.375M2.5 24.375H9.375" stroke="white" stroke-width="2.5" stroke-linecap="round"/>
<path id="Vector_2" d="M19.6875 21.25C21.0965 21.25 22.4477 20.6903 23.444 19.694C24.4403 18.6977 25 17.3465 25 15.9375C25 14.5285 24.4403 13.1773 23.444 12.181C22.4477 11.1847 21.0965 10.625 19.6875 10.625C18.2785 10.625 16.9273 11.1847 15.931 12.181C14.9347 13.1773 14.375 14.5285 14.375 15.9375C14.375 17.3465 14.9347 18.6977 15.931 19.694C16.9273 20.6903 18.2785 21.25 19.6875 21.25Z" stroke="white" stroke-width="2.5"/>
<path id="Vector_3" d="M23.125 20L27.5 24.4062" stroke="white" stroke-width="2.5" stroke-linecap="round"/>
</g>
</g>
</svg>
