<svg width="14" height="14" viewBox="0 0 14 14" fill="none" xmlns="http://www.w3.org/2000/svg">
<path d="M7 12.25C9.8995 12.25 12.25 9.8995 12.25 7C12.25 4.1005 9.8995 1.75 7 1.75C4.1005 1.75 1.75 4.1005 1.75 7C1.75 9.8995 4.1005 12.25 7 12.25Z" stroke="white" stroke-width="0.583333"/>
<path d="M7.00004 10.7917C7.16112 10.7917 7.29171 10.6611 7.29171 10.5C7.29171 10.339 7.16112 10.2084 7.00004 10.2084C6.83896 10.2084 6.70837 10.339 6.70837 10.5C6.70837 10.6611 6.83896 10.7917 7.00004 10.7917Z" fill="white"/>
<path d="M7 9.33337V8.83346C7 8.41696 7.20825 8.02787 7.55475 7.79687L7.90417 7.56354C8.16438 7.39002 8.37773 7.15494 8.52528 6.87917C8.67283 6.6034 8.75002 6.29547 8.75 5.98271V5.83337C8.75 5.36925 8.56563 4.92413 8.23744 4.59594C7.90925 4.26775 7.46413 4.08337 7 4.08337C6.53587 4.08337 6.09075 4.26775 5.76256 4.59594C5.43437 4.92413 5.25 5.36925 5.25 5.83337" stroke="white" stroke-width="0.583333"/>
</svg>
