<svg width="35" height="35" viewBox="0 0 35 35" fill="none" xmlns="http://www.w3.org/2000/svg">
<path d="M18 32V18.4949M18 32L7.43657 24.5688C6.732 24.0742 6.38057 23.826 6.19029 23.4631C6 23.1001 6 22.673 6 21.8222V10.0541M18 32L28.5651 24.5688C29.268 24.0742 29.6194 23.826 29.8097 23.4631C30 23.1001 30 22.673 30 21.8222V10.0541M18 18.4949L6 10.0541M18 18.4949L30 10.0541M6 10.0541L16.008 3.01457C16.968 2.33932 17.4514 2 18 2C18.5486 2 19.0303 2.33763 19.992 3.01457L30 10.0541" stroke="white" stroke-opacity="0.5" stroke-width="1.66667" stroke-linejoin="round"/>
</svg>
