<svg width="30" height="30" viewBox="0 0 30 30" fill="none" xmlns="http://www.w3.org/2000/svg">
<g id="material-symbols:network-node">
<path id="Vector" d="M6.875 27.5C5.66667 27.5 4.63542 27.0729 3.78125 26.2188C2.92708 25.3646 2.5 24.3333 2.5 23.125C2.5 21.9167 2.92708 20.8854 3.78125 20.0312C4.63542 19.1771 5.66667 18.75 6.875 18.75C7.25 18.75 7.61458 18.7967 7.96875 18.89C8.32292 18.9833 8.65625 19.1138 8.96875 19.2812L13.75 14.5V11.0625C12.8333 10.7917 12.0833 10.2762 11.5 9.51625C10.9167 8.75625 10.625 7.87583 10.625 6.875C10.625 5.66667 11.0521 4.63542 11.9062 3.78125C12.7604 2.92708 13.7917 2.5 15 2.5C16.2083 2.5 17.2396 2.92708 18.0938 3.78125C18.9479 4.63542 19.375 5.66667 19.375 6.875C19.375 7.875 19.0833 8.75542 18.5 9.51625C17.9167 10.2771 17.1667 10.7925 16.25 11.0625V14.5L21.0625 19.2812C21.375 19.1146 21.7033 18.9846 22.0475 18.8913C22.3917 18.7979 22.7508 18.7508 23.125 18.75C24.3333 18.75 25.3646 19.1771 26.2188 20.0312C27.0729 20.8854 27.5 21.9167 27.5 23.125C27.5 24.3333 27.0729 25.3646 26.2188 26.2188C25.3646 27.0729 24.3333 27.5 23.125 27.5C21.9167 27.5 20.8854 27.0729 20.0312 26.2188C19.1771 25.3646 18.75 24.3333 18.75 23.125C18.75 22.75 18.7967 22.3854 18.89 22.0312C18.9833 21.6771 19.1138 21.3438 19.2812 21.0312L15 16.75L10.7188 21.0312C10.8854 21.3438 11.0158 21.6771 11.11 22.0312C11.2042 22.3854 11.2508 22.75 11.25 23.125C11.25 24.3333 10.8229 25.3646 9.96875 26.2188C9.11458 27.0729 8.08333 27.5 6.875 27.5ZM23.125 25C23.6458 25 24.0887 24.8179 24.4537 24.4537C24.8187 24.0896 25.0008 23.6467 25 23.125C25 22.6042 24.8179 22.1617 24.4537 21.7975C24.0896 21.4333 23.6467 21.2508 23.125 21.25C22.6042 21.25 22.1617 21.4325 21.7975 21.7975C21.4333 22.1625 21.2508 22.605 21.25 23.125C21.25 23.6458 21.4325 24.0887 21.7975 24.4537C22.1625 24.8187 22.605 25.0008 23.125 25ZM15 8.75C15.5208 8.75 15.9637 8.56792 16.3287 8.20375C16.6937 7.83958 16.8758 7.39667 16.875 6.875C16.875 6.35417 16.6929 5.91167 16.3287 5.5475C15.9646 5.18333 15.5217 5.00083 15 5C14.4792 5 14.0367 5.1825 13.6725 5.5475C13.3083 5.9125 13.1258 6.355 13.125 6.875C13.125 7.39583 13.3075 7.83875 13.6725 8.20375C14.0375 8.56875 14.48 8.75083 15 8.75ZM6.875 25C7.39583 25 7.83875 24.8179 8.20375 24.4537C8.56875 24.0896 8.75083 23.6467 8.75 23.125C8.75 22.6042 8.56792 22.1617 8.20375 21.7975C7.83958 21.4333 7.39667 21.2508 6.875 21.25C6.35417 21.25 5.91167 21.4325 5.5475 21.7975C5.18333 22.1625 5.00083 22.605 5 23.125C5 23.6458 5.1825 24.0887 5.5475 24.4537C5.9125 24.8187 6.355 25.0008 6.875 25Z" fill="white"/>
</g>
</svg>
