<svg width="30" height="30" viewBox="0 0 30 30" fill="none" xmlns="http://www.w3.org/2000/svg">
<g id="material-symbols:folder-shared-rounded">
<path id="Vector" d="M5 25C4.3125 25 3.72417 24.7554 3.235 24.2663C2.74583 23.7771 2.50083 23.1883 2.5 22.5V7.5C2.5 6.8125 2.745 6.22417 3.235 5.735C3.725 5.24583 4.31333 5.00083 5 5H11.4688C11.8021 5 12.12 5.0625 12.4225 5.1875C12.725 5.3125 12.9904 5.48958 13.2188 5.71875L15 7.5H25C25.6875 7.5 26.2763 7.745 26.7663 8.235C27.2563 8.725 27.5008 9.31333 27.5 10V22.5C27.5 23.1875 27.2554 23.7763 26.7663 24.2663C26.2771 24.7563 25.6883 25.0008 25 25H5ZM13.75 21.25H23.75V20.5625C23.75 19.625 23.2917 18.8804 22.375 18.3288C21.4583 17.7771 20.25 17.5008 18.75 17.5C17.25 17.5 16.0417 17.7762 15.125 18.3288C14.2083 18.8813 13.75 19.6258 13.75 20.5625V21.25ZM18.75 16.25C19.4375 16.25 20.0263 16.0054 20.5163 15.5163C21.0063 15.0271 21.2508 14.4383 21.25 13.75C21.25 13.0625 21.0054 12.4742 20.5163 11.985C20.0271 11.4958 19.4383 11.2508 18.75 11.25C18.0625 11.25 17.4742 11.495 16.985 11.985C16.4958 12.475 16.2508 13.0633 16.25 13.75C16.25 14.4375 16.495 15.0262 16.985 15.5163C17.475 16.0063 18.0633 16.2508 18.75 16.25Z" fill="white"/>
</g>
</svg>
