<svg width="30" height="30" viewBox="0 0 30 30" fill="none" xmlns="http://www.w3.org/2000/svg">
<g id="mingcute:settings-2-line" clip-path="url(#clip0_39_152)">
<g id="Group">
<path id="Vector" fill-rule="evenodd" clip-rule="evenodd" d="M22.5 5C22.5 4.66848 22.3683 4.35054 22.1339 4.11612C21.8995 3.8817 21.5815 3.75 21.25 3.75C20.9185 3.75 20.6005 3.8817 20.3661 4.11612C20.1317 4.35054 20 4.66848 20 5V6.25H5C4.66848 6.25 4.35054 6.3817 4.11612 6.61612C3.8817 6.85054 3.75 7.16848 3.75 7.5C3.75 7.83152 3.8817 8.14946 4.11612 8.38388C4.35054 8.6183 4.66848 8.75 5 8.75H20V10C20 10.3315 20.1317 10.6495 20.3661 10.8839C20.6005 11.1183 20.9185 11.25 21.25 11.25C21.5815 11.25 21.8995 11.1183 22.1339 10.8839C22.3683 10.6495 22.5 10.3315 22.5 10V8.75H25C25.3315 8.75 25.6495 8.6183 25.8839 8.38388C26.1183 8.14946 26.25 7.83152 26.25 7.5C26.25 7.16848 26.1183 6.85054 25.8839 6.61612C25.6495 6.3817 25.3315 6.25 25 6.25H22.5V5ZM5 13.75C4.66848 13.75 4.35054 13.8817 4.11612 14.1161C3.8817 14.3505 3.75 14.6685 3.75 15C3.75 15.3315 3.8817 15.6495 4.11612 15.8839C4.35054 16.1183 4.66848 16.25 5 16.25H7.5V17.5C7.5 17.8315 7.6317 18.1495 7.86612 18.3839C8.10054 18.6183 8.41848 18.75 8.75 18.75C9.08152 18.75 9.39946 18.6183 9.63388 18.3839C9.8683 18.1495 10 17.8315 10 17.5V16.25H25C25.3315 16.25 25.6495 16.1183 25.8839 15.8839C26.1183 15.6495 26.25 15.3315 26.25 15C26.25 14.6685 26.1183 14.3505 25.8839 14.1161C25.6495 13.8817 25.3315 13.75 25 13.75H10V12.5C10 12.1685 9.8683 11.8505 9.63388 11.6161C9.39946 11.3817 9.08152 11.25 8.75 11.25C8.41848 11.25 8.10054 11.3817 7.86612 11.6161C7.6317 11.8505 7.5 12.1685 7.5 12.5V13.75H5ZM3.75 22.5C3.75 22.1685 3.8817 21.8505 4.11612 21.6161C4.35054 21.3817 4.66848 21.25 5 21.25H20V20C20 19.6685 20.1317 19.3505 20.3661 19.1161C20.6005 18.8817 20.9185 18.75 21.25 18.75C21.5815 18.75 21.8995 18.8817 22.1339 19.1161C22.3683 19.3505 22.5 19.6685 22.5 20V21.25H25C25.3315 21.25 25.6495 21.3817 25.8839 21.6161C26.1183 21.8505 26.25 22.1685 26.25 22.5C26.25 22.8315 26.1183 23.1495 25.8839 23.3839C25.6495 23.6183 25.3315 23.75 25 23.75H22.5V25C22.5 25.3315 22.3683 25.6495 22.1339 25.8839C21.8995 26.1183 21.5815 26.25 21.25 26.25C20.9185 26.25 20.6005 26.1183 20.3661 25.8839C20.1317 25.6495 20 25.3315 20 25V23.75H5C4.66848 23.75 4.35054 23.6183 4.11612 23.3839C3.8817 23.1495 3.75 22.8315 3.75 22.5Z" fill="white"/>
</g>
</g>
<defs>
<clipPath id="clip0_39_152">
<rect width="30" height="30" fill="white"/>
</clipPath>
</defs>
</svg>
