<svg width="10" height="10" viewBox="0 0 10 10" fill="none" xmlns="http://www.w3.org/2000/svg">
<g clip-path="url(#clip0_332_256)">
<path d="M2.98343 4.57163C3.36969 4.1159 3.88658 3.78977 4.4642 3.63733C5.04182 3.4849 5.65233 3.51351 6.21316 3.7193C6.774 3.92509 7.25811 4.29813 7.60006 4.78799C7.942 5.27785 8.12527 5.8609 8.1251 6.45829C8.1251 6.62406 8.19095 6.78303 8.30816 6.90024C8.42537 7.01745 8.58434 7.08329 8.7501 7.08329C8.91586 7.08329 9.07483 7.01745 9.19204 6.90024C9.30925 6.78303 9.3751 6.62406 9.3751 6.45829C9.3751 4.15705 7.50968 2.29163 5.20843 2.29163C4.62578 2.29099 4.04951 2.41289 3.51702 2.64942C2.98454 2.88594 2.50775 3.2318 2.1176 3.66455L1.97302 2.8458C1.96022 2.76367 1.93118 2.68493 1.88758 2.61417C1.84398 2.54341 1.78671 2.48206 1.71912 2.4337C1.65152 2.38535 1.57496 2.35096 1.49392 2.33255C1.41287 2.31413 1.32897 2.31207 1.24711 2.32648C1.16526 2.34089 1.08711 2.37148 1.01722 2.41646C0.94733 2.46144 0.887116 2.51991 0.840098 2.58844C0.79308 2.65697 0.760202 2.73419 0.74339 2.81559C0.726578 2.89698 0.726168 2.98091 0.742184 3.06246L1.17635 5.52496C1.2051 5.68788 1.29718 5.83329 1.43343 5.92829C1.60135 6.04579 1.8226 6.07205 2.01052 6.01246L4.36218 5.59746C4.4443 5.58467 4.52305 5.55562 4.59381 5.51202C4.66457 5.46843 4.72592 5.41116 4.77428 5.34356C4.82263 5.27597 4.85702 5.19941 4.87543 5.11836C4.89384 5.03732 4.89591 4.95341 4.8815 4.87156C4.86709 4.78971 4.8365 4.71155 4.79152 4.64166C4.74654 4.57177 4.68807 4.51156 4.61954 4.46454C4.55101 4.41752 4.47378 4.38465 4.39239 4.36783C4.311 4.35102 4.22707 4.35061 4.14552 4.36663L2.98385 4.57121L2.98343 4.57163Z" fill="white"/>
</g>
<defs>
<clipPath id="clip0_332_256">
<rect width="10" height="10" fill="white"/>
</clipPath>
</defs>
</svg>
