<svg width="30" height="35" viewBox="0 0 30 35" fill="none" xmlns="http://www.w3.org/2000/svg">
<g filter="url(#filter0_d_30_181)">
<path fill-rule="evenodd" clip-rule="evenodd" d="M15 4.5C14.337 4.5 13.7011 4.76339 13.2322 5.23223C12.7634 5.70107 12.5 6.33696 12.5 7H17.5C17.5 6.33696 17.2366 5.70107 16.7678 5.23223C16.2989 4.76339 15.663 4.5 15 4.5ZM11.6925 3.25C12.5737 2.4725 13.7325 2 15 2C16.2675 2 17.425 2.4725 18.3075 3.25H22.5C23.163 3.25 23.7989 3.51339 24.2678 3.98223C24.7366 4.45107 25 5.08696 25 5.75V24.5C25 25.163 24.7366 25.7989 24.2678 26.2678C23.7989 26.7366 23.163 27 22.5 27H7.5C6.83696 27 6.20107 26.7366 5.73223 26.2678C5.26339 25.7989 5 25.163 5 24.5V5.75C5 5.08696 5.26339 4.45107 5.73223 3.98223C6.20107 3.51339 6.83696 3.25 7.5 3.25H11.6925ZM10.1575 5.75H7.5V24.5H22.5V5.75H19.8425C19.945 6.15 20 6.56875 20 7V8.25C20 8.58152 19.8683 8.89946 19.6339 9.13388C19.3995 9.3683 19.0815 9.5 18.75 9.5H11.25C10.9185 9.5 10.6005 9.3683 10.3661 9.13388C10.1317 8.89946 10 8.58152 10 8.25V7C10 6.56875 10.055 6.15 10.1575 5.75ZM10 13.25C10 12.9185 10.1317 12.6005 10.3661 12.3661C10.6005 12.1317 10.9185 12 11.25 12H18.75C19.0815 12 19.3995 12.1317 19.6339 12.3661C19.8683 12.6005 20 12.9185 20 13.25C20 13.5815 19.8683 13.8995 19.6339 14.1339C19.3995 14.3683 19.0815 14.5 18.75 14.5H11.25C10.9185 14.5 10.6005 14.3683 10.3661 14.1339C10.1317 13.8995 10 13.5815 10 13.25ZM10 18.25C10 17.9185 10.1317 17.6005 10.3661 17.3661C10.6005 17.1317 10.9185 17 11.25 17H15C15.3315 17 15.6495 17.1317 15.8839 17.3661C16.1183 17.6005 16.25 17.9185 16.25 18.25C16.25 18.5815 16.1183 18.8995 15.8839 19.1339C15.6495 19.3683 15.3315 19.5 15 19.5H11.25C10.9185 19.5 10.6005 19.3683 10.3661 19.1339C10.1317 18.8995 10 18.5815 10 18.25Z" fill="white"/>
</g>
<defs>
<filter id="filter0_d_30_181" x="1" y="2" width="28" height="33" filterUnits="userSpaceOnUse" color-interpolation-filters="sRGB">
<feFlood flood-opacity="0" result="BackgroundImageFix"/>
<feColorMatrix in="SourceAlpha" type="matrix" values="0 0 0 0 0 0 0 0 0 0 0 0 0 0 0 0 0 0 127 0" result="hardAlpha"/>
<feOffset dy="4"/>
<feGaussianBlur stdDeviation="2"/>
<feComposite in2="hardAlpha" operator="out"/>
<feColorMatrix type="matrix" values="0 0 0 0 0 0 0 0 0 0 0 0 0 0 0 0 0 0 0.25 0"/>
<feBlend mode="normal" in2="BackgroundImageFix" result="effect1_dropShadow_30_181"/>
<feBlend mode="normal" in="SourceGraphic" in2="effect1_dropShadow_30_181" result="shape"/>
</filter>
</defs>
</svg>
