<svg width="11" height="20" viewBox="0 0 11 20" fill="none" xmlns="http://www.w3.org/2000/svg">
<path d="M1.79544 9.99991L10.2874 1.27291C10.3574 1.20258 10.4126 1.11908 10.4501 1.02725C10.4875 0.935419 10.5064 0.837075 10.5055 0.73791C10.5047 0.638745 10.4842 0.540728 10.4453 0.449531C10.4063 0.358333 10.3497 0.275767 10.2786 0.20661C10.2075 0.137452 10.1234 0.0830768 10.0312 0.04663C9.93897 0.0101833 9.84043 -0.00761119 9.74127 -0.00572347C9.64212 -0.00383576 9.54433 0.0176966 9.45356 0.0576276C9.36279 0.0975585 9.28083 0.155095 9.21244 0.226908L0.21244 9.47691C0.0762178 9.61692 0 9.80456 0 9.99991C0 10.1953 0.0762178 10.3829 0.21244 10.5229L9.21244 19.7729C9.28083 19.8447 9.36279 19.9023 9.45356 19.9422C9.54433 19.9821 9.64212 20.0036 9.74127 20.0055C9.84043 20.0074 9.93897 19.9896 10.0312 19.9532C10.1234 19.9167 10.2075 19.8624 10.2786 19.7932C10.3497 19.724 10.4063 19.6415 10.4453 19.5503C10.4842 19.4591 10.5047 19.3611 10.5055 19.2619C10.5064 19.1627 10.4875 19.0644 10.4501 18.9726C10.4126 18.8807 10.3574 18.7972 10.2874 18.7269L1.79544 9.99991Z" fill="white"/>
</svg>
