<svg width="17" height="21" viewBox="0 0 17 21" fill="none" xmlns="http://www.w3.org/2000/svg">
<path d="M8.5 16C9.03043 16 9.53914 15.7893 9.91421 15.4142C10.2893 15.0391 10.5 14.5304 10.5 14C10.5 13.4696 10.2893 12.9609 9.91421 12.5858C9.53914 12.2107 9.03043 12 8.5 12C7.96957 12 7.46086 12.2107 7.08579 12.5858C6.71071 12.9609 6.5 13.4696 6.5 14C6.5 14.5304 6.71071 15.0391 7.08579 15.4142C7.46086 15.7893 7.96957 16 8.5 16ZM14.5 7C15.0304 7 15.5391 7.21071 15.9142 7.58579C16.2893 7.96086 16.5 8.46957 16.5 9V19C16.5 19.5304 16.2893 20.0391 15.9142 20.4142C15.5391 20.7893 15.0304 21 14.5 21H2.5C1.96957 21 1.46086 20.7893 1.08579 20.4142C0.710714 20.0391 0.5 19.5304 0.5 19V9C0.5 8.46957 0.710714 7.96086 1.08579 7.58579C1.46086 7.21071 1.96957 7 2.5 7H3.5V5C3.5 3.67392 4.02678 2.40215 4.96447 1.46447C5.90215 0.526784 7.17392 0 8.5 0C9.15661 0 9.80679 0.129329 10.4134 0.380602C11.02 0.631876 11.5712 1.00017 12.0355 1.46447C12.4998 1.92876 12.8681 2.47995 13.1194 3.08658C13.3707 3.69321 13.5 4.34339 13.5 5V7H14.5ZM8.5 2C7.70435 2 6.94129 2.31607 6.37868 2.87868C5.81607 3.44129 5.5 4.20435 5.5 5V7H11.5V5C11.5 4.20435 11.1839 3.44129 10.6213 2.87868C10.0587 2.31607 9.29565 2 8.5 2Z" fill="white"/>
</svg>
