<svg width="6" height="10" viewBox="0 0 6 10" fill="none" xmlns="http://www.w3.org/2000/svg">
<path d="M5.1028 5L0.859244 9.36098C0.824306 9.39613 0.796685 9.43785 0.777979 9.48374C0.759273 9.52963 0.749852 9.57878 0.750264 9.62833C0.750676 9.67788 0.760911 9.72686 0.780377 9.77244C0.799843 9.81801 0.828154 9.85927 0.86367 9.89383C0.899188 9.92839 0.941205 9.95556 0.987293 9.97377C1.03338 9.99198 1.08262 10.0009 1.13217 9.99993C1.18172 9.99899 1.23058 9.98823 1.27594 9.96827C1.32131 9.94832 1.36226 9.91957 1.39643 9.88368L5.89384 5.26135C5.96191 5.19138 6 5.09762 6 5C6 4.90238 5.96191 4.80862 5.89384 4.73865L1.39643 0.116316C1.36226 0.08043 1.32131 0.0516787 1.27594 0.0317249C1.23058 0.0117712 1.18172 0.00101089 1.13217 6.77109e-05C1.08262 -0.000875473 1.03338 0.00801659 0.987293 0.0262289C0.941205 0.0444422 0.899188 0.0716133 0.86367 0.106173C0.828154 0.140732 0.799843 0.181992 0.780377 0.227564C0.760911 0.273136 0.750676 0.322116 0.750264 0.37167C0.749852 0.421225 0.759273 0.470367 0.777979 0.516257C0.796685 0.562147 0.824306 0.603871 0.859244 0.639015L5.1028 5Z" fill="white"/>
</svg>
