<svg width="24" height="25" viewBox="0 0 24 25" fill="none" xmlns="http://www.w3.org/2000/svg">
<g id="zondicons:user" clip-path="url(#clip0_126_11)">
<path id="Vector" d="M6 6.5C6 4.9087 6.63214 3.38258 7.75736 2.25736C8.88258 1.13214 10.4087 0.5 12 0.5C13.5913 0.5 15.1174 1.13214 16.2426 2.25736C17.3679 3.38258 18 4.9087 18 6.5V8.9C18 10.4913 17.3679 12.0174 16.2426 13.1426C15.1174 14.2679 13.5913 14.9 12 14.9C10.4087 14.9 8.88258 14.2679 7.75736 13.1426C6.63214 12.0174 6 10.4913 6 8.9V6.5ZM0 20.516C3.64621 18.4041 7.78632 17.2945 12 17.3C16.368 17.3 20.472 18.464 24 20.516V24.5H0V20.516Z" fill="white"/>
</g>
<defs>
<clipPath id="clip0_126_11">
<rect width="24" height="24" fill="white" transform="translate(0 0.5)"/>
</clipPath>
</defs>
</svg>
